HIERARCHY
ROOT pelvis
{
  OFFSET 0 100 0
  CHANNELS 6 Xposition Yposition Zposition Zrotation Xrotation Yrotation
  JOINT pelvis_right_femur
  {
    OFFSET -10.78128 -3.44521 -0.5502486
    CHANNELS 3 Zrotation Xrotation Yrotation
    JOINT right_femur_tibia
    {
      OFFSET -0.8047443 -44.0398 -0.1307829
      CHANNELS 3 Zrotation Xrotation Yrotation
      JOINT right_tibia_foot
      {
        OFFSET 3.006224 -47.83518 -5
        CHANNELS 3 Zrotation Xrotation Yrotation
        End Site
        {
          OFFSET 0 -5 15
        }
      }
    }
  }
  JOINT pelvis_left_femur
  {
    OFFSET 10.78128 -3.44521 -0.5502486
    CHANNELS 3 Zrotation Xrotation Yrotation
    JOINT left_femur_tibia
    {
      OFFSET 0.8047443 -44.0398 -0.1307829
      CHANNELS 3 Zrotation Xrotation Yrotation
      JOINT left_tibia_foot
      {
        OFFSET -4.370144 -48.10324 -4.275266
        CHANNELS 3 Zrotation Xrotation Yrotation
        End Site
        {
          OFFSET 0 -5 15
        }
      }
    }
  }
  JOINT pelvis_spine1
  {
    OFFSET 0 6.468898 -3.129235
    CHANNELS 3 Zrotation Xrotation Yrotation
    JOINT spine1
    {
      OFFSET 0 23.15396 4.99043
      CHANNELS 3 Zrotation Xrotation Yrotation
      JOINT spine2
      {
        OFFSET 0 20.79997 -5.064912
        CHANNELS 3 Zrotation Xrotation Yrotation
        JOINT neck
        {
          OFFSET 0 14.38658 9.616178
          CHANNELS 3 Zrotation Xrotation Yrotation
          End Site
          {
            OFFSET 0 20 0
          }
        }
      }
      JOINT right_manubrium
      {
        OFFSET -5.722621 16.35077 3.967754
        CHANNELS 3 Zrotation Xrotation Yrotation
        JOINT right_clavicle
        {
          OFFSET -13.16364 1.694482 -4.693211
          CHANNELS 3 Zrotation Xrotation Yrotation
          JOINT right_humerus
          {
            OFFSET -28.5034 -0.3100689 -2.792744
            CHANNELS 3 Zrotation Xrotation Yrotation
            JOINT right_radius
            {
              OFFSET -25.15693 0.02248979 -1.271978
              CHANNELS 3 Zrotation Xrotation Yrotation
              End Site
              {
                OFFSET -15 0 0
              }
            }
          }
        }
      }
      JOINT left_manubrium
      {
        OFFSET 5.722621 16.35077 3.967754
        CHANNELS 3 Zrotation Xrotation Yrotation
        JOINT left_clavicle
        {
          OFFSET 13.16364 1.694482 -4.693211
          CHANNELS 3 Zrotation Xrotation Yrotation
          JOINT left_humerus
          {
            OFFSET 29.39168 -1.063119 -2.237045
            CHANNELS 3 Zrotation Xrotation Yrotation
            JOINT left_radius
            {
              OFFSET 24.59957 -0.9528479 0.9047498
              CHANNELS 3 Zrotation Xrotation Yrotation
              End Site
              {
                OFFSET 15 -0 -0
              }
            }
          }
        }
      }
    }
  }
}
MOTION
Frames: 7
Frame Time: 0.0416666666667
0 103.5113 0 1.261485 -0.4701196 0.02855122 2.94538 -17.01493 8.225752 -0 35.92459 -0 -5.087542 -16.17138 -3.501242 -7.189388 11.70635 -23.24446 -0 4.601457 -0 6.138047 -18.49784 25.28745 -4.067409 -5.109727 5.014557 2.499306 9.673061 -8.985574 1.582272 21.06683 6.973421 2.857898 -26.03054 10.19918 5.593711 -21.73345 11.48525 83.95581 32.41868 -16.74488 -0 0 20.18195 -8.918832 7.29257 3.315102 8.962942 -21.03746 2.712337 -93.58356 19.73167 21.48531 0 0 -8.231365 15.48188 20.65923 -5.470837
0.2309254 103.4027 1.526324 0.3575865 -0.1045368 -0.07201674 4.133351 -20.04051 8.800987 -0 36.1591 -0 -5.351401 -14.93598 -4.029914 -6.36119 11.6656 -22.9268 -0 5.330434 -0 3.833574 -20.17369 24.17514 -3.85435 -4.791951 4.852904 2.691449 9.570769 -8.92123 1.58996 20.89407 7.136009 2.976427 -26.35253 10.34571 5.651774 -21.22604 11.47986 84.19901 32.73189 -17.26211 -0 0 19.36623 -8.359577 7.477615 3.253424 8.773547 -21.0588 2.478657 -93.40945 20.00462 21.07493 0 0 -9.551256 15.2668 19.87469 -5.012509
0.4613369 103.1317 3.360618 -0.1369338 0.6922339 -0.1615208 5.092721 -24.13429 8.249789 -0 32.76847 -0 -5.922178 -13.02284 -3.811723 -6.073155 12.03962 -21.84736 -0 5.586573 -0 4.539282 -21.35874 23.74144 -3.456821 -4.160738 4.625512 3.019534 9.458751 -8.789619 1.555939 20.6641 7.331943 3.113458 -26.8271 10.46102 5.537655 -20.4429 11.53162 84.77128 33.4301 -17.93815 -0 0 17.75442 -7.747401 7.783159 3.407043 8.310232 -21.16891 1.990392 -92.78464 20.05096 20.23609 0 0 -12.014 15.13787 18.31683 -4.632768
0.6795435 102.6332 5.628147 -0.5191975 1.373829 -0.180187 5.749369 -28.00368 7.212769 -0 28.46915 -0 -6.517471 -10.76712 -3.357195 -5.851391 12.65439 -20.50052 -0 5.911387 -0 5.102866 -22.44008 22.92241 -3.177739 -3.697049 4.297957 3.358702 9.203284 -8.795602 1.516784 20.35402 7.636056 3.319072 -27.41208 10.67766 5.533621 -19.77054 11.53728 85.13681 33.76789 -18.65502 -0 0 16.63684 -7.141941 8.015263 3.411951 8.155496 -21.19182 1.766822 -92.33167 20.21133 19.33916 0 0 -13.88706 15.01577 17.1279 -4.353184
0.8811556 101.9477 8.385671 -0.7747082 2.179027 -0.07176569 6.262223 -31.32685 6.327035 -0 24.06092 -0 -6.82192 -8.664515 -2.790501 -5.774856 13.30263 -19.29103 -0 6.401984 -0 5.744397 -23.12197 22.14428 -2.869637 -3.213554 3.978573 3.676171 8.968564 -8.806984 1.454423 20.03813 7.916566 3.519673 -27.91524 10.82793 5.51729 -19.12373 11.55527 85.55207 34.16238 -19.3708 -0 0 15.47838 -6.669723 8.29918 3.519853 7.999722 -21.2524 1.484388 -91.79072 20.3435 18.42009 0 0 -15.89396 14.86657 15.89181 -4.047211
1.06126 101.1176 11.73992 -1.002187 2.901598 0.2127509 6.666579 -33.96401 5.393556 -0 19.70208 -0 -7.02729 -6.379639 -2.099821 -5.713799 14.05312 -18.03458 -0 7.552642 -0 6.004003 -23.30643 21.00313 -2.577234 -2.770446 3.672175 3.95843 8.747554 -8.841796 1.378279 19.73059 8.173695 3.710752 -28.3365 10.92899 5.498978 -18.54969 11.57426 85.95778 34.52206 -20.04753 -0 0 14.41752 -6.344226 8.594124 3.684184 7.8925 -21.32997 1.209651 -91.23132 20.44836 17.52353 0 0 -17.79354 14.70966 14.74608 -3.760901
1.225842 100.2494 15.76052 -1.307029 3.525636 0.694855 7.164435 -35.70912 4.756445 -0 16.13095 -0 -7.133661 -4.08889 -1.464657 -5.54672 14.75326 -16.81211 -0 9.749288 -0 5.505661 -22.84201 19.34647 -2.286572 -2.356613 3.421168 4.172865 8.596454 -8.870428 1.289639 19.47039 8.365302 3.868419 -28.59945 10.93622 5.466607 -18.05453 11.60031 86.39558 34.89095 -20.67253 -0 0 13.40371 -6.226177 8.916334 3.940429 7.779959 -21.44254 0.8806552 -90.65809 20.54016 16.72203 0 0 -19.59079 14.50058 13.67177 -3.419892
